<?xml version="1.0" encoding="utf-8"?>
<!-- Generator: Adobe Illustrator 24.3.0, SVG Export Plug-In . SVG Version: 6.00 Build 0)  -->
<svg version="1.1" id="Font" xmlns="http://www.w3.org/2000/svg" xmlns:xlink="http://www.w3.org/1999/xlink" x="0px" y="0px"
	 viewBox="0 0 256 38" style="enable-background:new 0 0 256 38;" xml:space="preserve">
<style type="text/css">
	.st0{fill:#428BCA;}
</style>
<path class="st0" d="M21.5,9.9c-0.2-0.8-0.5-1.6-0.9-2.3s-0.9-1.3-1.5-1.8S17.8,4.9,17,4.6c-0.8-0.3-1.8-0.4-2.8-0.4
	c-1.6,0-2.9,0.3-4.1,0.9S8,6.5,7.3,7.6c-0.7,1-1.2,2.2-1.6,3.6s-0.5,2.7-0.5,4.1s0.2,2.7,0.5,4.1s0.9,2.5,1.6,3.6
	c0.7,1,1.6,1.9,2.8,2.5c1.1,0.6,2.5,0.9,4.1,0.9c1.2,0,2.2-0.2,3.1-0.6s1.6-0.9,2.3-1.6c0.6-0.7,1.1-1.5,1.5-2.4s0.6-1.9,0.7-3h5
	c-0.1,1.7-0.5,3.3-1.1,4.8c-0.6,1.4-1.5,2.7-2.6,3.7s-2.4,1.8-3.9,2.4s-3.1,0.9-4.9,0.9c-2.2,0-4.2-0.4-5.9-1.2S5,27.3,3.8,25.9
	s-2.1-3-2.8-4.8c-0.6-1.8-1-3.8-1-5.9s0.3-4,1-5.8c0.6-1.8,1.6-3.5,2.8-4.8C5,3.1,6.4,2,8.2,1.2C9.9,0.4,11.9,0,14.1,0
	c1.7,0,3.2,0.2,4.7,0.7c1.5,0.4,2.7,1.1,3.9,1.9c1.1,0.9,2,1.9,2.7,3.1s1.1,2.6,1.3,4.2H21.5z M40.5,30.2c-1.7,0-3.2-0.3-4.6-0.8
	c-1.3-0.6-2.5-1.3-3.4-2.3c-0.9-1-1.6-2.1-2.1-3.5s-0.7-2.8-0.7-4.5c0-1.6,0.2-3.1,0.7-4.4c0.5-1.4,1.2-2.5,2.1-3.5
	c0.9-1,2.1-1.7,3.4-2.3c1.3-0.6,2.9-0.8,4.6-0.8c1.7,0,3.2,0.3,4.6,0.8c1.3,0.6,2.5,1.3,3.4,2.3s1.6,2.1,2.1,3.5s0.7,2.8,0.7,4.4
	s-0.2,3.1-0.7,4.5s-1.2,2.5-2.1,3.5c-0.9,1-2.1,1.7-3.4,2.3C43.7,30,42.2,30.2,40.5,30.2z M40.5,26.6c1,0,2-0.2,2.7-0.6
	c0.8-0.4,1.4-1,1.9-1.7s0.9-1.5,1.1-2.4c0.2-0.9,0.4-1.8,0.4-2.7c0-0.9-0.1-1.8-0.4-2.7c-0.2-0.9-0.6-1.7-1.1-2.4s-1.1-1.3-1.9-1.7
	c-0.8-0.4-1.7-0.6-2.7-0.6s-2,0.2-2.7,0.6c-0.8,0.4-1.4,1-1.9,1.7s-0.9,1.5-1.1,2.4c-0.2,0.9-0.4,1.8-0.4,2.7c0,0.9,0.1,1.8,0.4,2.7
	c0.2,0.9,0.6,1.7,1.1,2.4c0.5,0.7,1.1,1.3,1.9,1.7C38.5,26.4,39.5,26.6,40.5,26.6z M55.2,8.7h4.5v2.9h0.1c0.4-0.5,0.7-1,1.2-1.4
	c0.4-0.4,0.9-0.8,1.4-1.1s1.1-0.5,1.8-0.7c0.7-0.2,1.4-0.3,2.3-0.3c1.3,0,2.5,0.3,3.6,0.9c1.1,0.6,1.9,1.4,2.4,2.6
	c0.8-1.1,1.7-1.9,2.8-2.6c1-0.6,2.4-0.9,3.9-0.9c2.3,0,4,0.5,5.3,1.6s1.9,2.9,1.9,5.4v14.5h-4.7V17.4c0-0.8,0-1.6-0.1-2.3
	s-0.2-1.3-0.5-1.8s-0.7-0.9-1.2-1.2s-1.2-0.4-2.1-0.4c-1.6,0-2.8,0.5-3.5,1.5s-1.1,2.4-1.1,4.1v12.3h-4.7V16.2
	c0-1.5-0.3-2.6-0.8-3.3s-1.5-1.1-3-1.1c-0.6,0-1.2,0.1-1.8,0.4c-0.6,0.2-1.1,0.6-1.5,1.1s-0.8,1-1,1.7c-0.3,0.7-0.4,1.4-0.4,2.3
	v12.5h-4.7V8.7H55.2z M91.2,8.7h4.5v2.8h0.1c0.7-1.2,1.6-2.1,2.8-2.6c1.2-0.5,2.5-0.8,3.8-0.8c1.7,0,3.1,0.3,4.4,0.9
	c1.3,0.6,2.3,1.4,3.1,2.4c0.8,1,1.4,2.2,1.9,3.6c0.4,1.4,0.6,2.8,0.6,4.3c0,1.4-0.2,2.8-0.6,4.1c-0.4,1.3-0.9,2.5-1.7,3.5
	c-0.8,1-1.7,1.8-2.9,2.4c-1.2,0.6-2.5,0.9-4.1,0.9c-0.7,0-1.4-0.1-2.1-0.2s-1.3-0.3-2-0.6c-0.6-0.3-1.2-0.6-1.8-1
	c-0.5-0.4-1-0.9-1.3-1.5h-0.1v10.5h-4.7L91.2,8.7L91.2,8.7z M107.7,19.2c0-0.9-0.1-1.9-0.4-2.8c-0.2-0.9-0.6-1.7-1.1-2.4
	s-1.1-1.2-1.9-1.7c-0.7-0.4-1.6-0.6-2.6-0.6c-2,0-3.5,0.7-4.5,2c-1,1.4-1.5,3.2-1.5,5.4c0,1.1,0.1,2,0.4,2.9s0.7,1.7,1.2,2.3
	c0.5,0.6,1.1,1.2,1.9,1.5c0.7,0.4,1.6,0.6,2.5,0.6c1.1,0,2-0.2,2.7-0.6s1.4-1,1.8-1.7c0.5-0.7,0.8-1.5,1-2.4
	C107.6,21,107.7,20.1,107.7,19.2z M134.2,25c0,0.6,0.1,1,0.2,1.2s0.4,0.4,0.9,0.4c0.1,0,0.3,0,0.5,0s0.4,0,0.7-0.1v3.2
	c-0.2,0.1-0.4,0.1-0.6,0.2s-0.5,0.1-0.8,0.2s-0.6,0.1-0.8,0.1c-0.3,0-0.5,0-0.7,0c-1,0-1.8-0.2-2.4-0.6c-0.6-0.4-1-1-1.2-2
	c-0.9,0.9-2.1,1.5-3.4,1.9c-1.4,0.4-2.7,0.6-3.9,0.6c-1,0-1.9-0.1-2.8-0.4s-1.7-0.6-2.3-1.1c-0.7-0.5-1.2-1.1-1.6-1.9
	s-0.6-1.7-0.6-2.7c0-1.3,0.2-2.4,0.7-3.2c0.5-0.8,1.1-1.4,1.9-1.9s1.7-0.8,2.6-1c1-0.2,2-0.4,3-0.5c0.9-0.2,1.7-0.3,2.4-0.3
	c0.8-0.1,1.5-0.2,2-0.3c0.6-0.2,1.1-0.4,1.4-0.8c0.3-0.3,0.5-0.8,0.5-1.5c0-0.6-0.1-1.1-0.4-1.5c-0.3-0.4-0.6-0.7-1.1-0.9
	c-0.4-0.2-0.9-0.3-1.4-0.4c-0.5-0.1-1-0.1-1.5-0.1c-1.3,0-2.4,0.3-3.3,0.8s-1.3,1.4-1.4,2.5H116c0.1-1.4,0.4-2.5,1-3.4
	c0.6-0.9,1.3-1.6,2.2-2.2c0.9-0.5,1.9-0.9,3-1.1c1.1-0.2,2.3-0.3,3.5-0.3c1,0,2.1,0.1,3.1,0.3c1,0.2,1.9,0.6,2.7,1.1s1.5,1.1,2,1.9
	c0.5,0.8,0.7,1.7,0.7,2.8V25z M129.5,19.2c-0.7,0.5-1.6,0.7-2.6,0.8c-1,0.1-2.1,0.2-3.1,0.4c-0.5,0.1-1,0.2-1.4,0.3
	c-0.5,0.1-0.9,0.4-1.2,0.6c-0.4,0.3-0.6,0.6-0.8,1c-0.2,0.4-0.3,0.9-0.3,1.5c0,0.5,0.2,0.9,0.5,1.3s0.7,0.6,1.1,0.8
	c0.4,0.2,0.9,0.3,1.4,0.4s1,0.1,1.4,0.1c0.5,0,1.1-0.1,1.7-0.2s1.2-0.4,1.7-0.7c0.5-0.3,1-0.7,1.3-1.2c0.4-0.5,0.5-1.1,0.5-1.8v-3.3
	H129.5z M139.3,8.7h4.5v3.1l0.1,0.1c0.7-1.2,1.7-2.1,2.8-2.7c1.2-0.7,2.4-1,3.8-1c2.3,0,4.2,0.6,5.5,1.8s2,3,2,5.4v14.4h-4.7V16.5
	c-0.1-1.7-0.4-2.8-1.1-3.6c-0.7-0.7-1.7-1.1-3.1-1.1c-0.8,0-1.5,0.1-2.1,0.4c-0.6,0.3-1.2,0.7-1.6,1.2c-0.4,0.5-0.8,1.1-1,1.8
	s-0.4,1.4-0.4,2.2v12.4h-4.7V8.7z M160.6,8.7h5.2l5.6,15.7h0.1l5.4-15.7h4.9l-8.3,22.1c-0.4,0.9-0.8,1.9-1.1,2.7
	c-0.4,0.9-0.8,1.6-1.4,2.3c-0.5,0.7-1.2,1.2-2,1.6c-0.8,0.4-1.8,0.6-3.1,0.6c-1.1,0-2.2-0.1-3.3-0.2v-3.9c0.4,0.1,0.8,0.1,1.1,0.2
	c0.4,0.1,0.7,0.1,1.1,0.1c0.6,0,1-0.1,1.4-0.2c0.4-0.1,0.7-0.3,0.9-0.6s0.4-0.6,0.6-0.9c0.2-0.4,0.3-0.8,0.5-1.2l0.5-1.6L160.6,8.7z
	 M191.3,0.7v29h-6.5v-29C184.8,0.7,191.3,0.7,191.3,0.7z M201.9,8.7v2.9h0.1c0.7-1.2,1.7-2.1,2.9-2.7c1.2-0.6,2.4-0.8,3.6-0.8
	c1.6,0,2.9,0.2,3.9,0.6c1,0.4,1.8,1,2.4,1.7c0.6,0.7,1,1.7,1.2,2.7c0.2,1.1,0.4,2.3,0.4,3.6v12.9h-5.9V17.8c0-1.7-0.3-3-0.8-3.9
	c-0.6-0.9-1.5-1.3-2.9-1.3c-1.6,0-2.8,0.5-3.5,1.4s-1.1,2.5-1.1,4.6v11h-5.9v-21h5.6V8.7z M218.6,12.5V8.7h3.5V7.1
	c0-1.9,0.6-3.4,1.8-4.6s3-1.8,5.4-1.8c0.5,0,1,0,1.6,0.1c0.5,0,1,0.1,1.5,0.1v4.3c-0.7-0.1-1.4-0.1-2.1-0.1c-0.8,0-1.4,0.2-1.7,0.5
	c-0.3,0.4-0.5,1-0.5,1.8v1.3h4v3.9h-4v17.1h-5.9V12.5H218.6z M234.7,14.6c0.5-1.4,1.3-2.5,2.2-3.5c1-1,2.1-1.7,3.5-2.2
	c1.3-0.5,2.9-0.8,4.5-0.8c1.7,0,3.2,0.3,4.6,0.8c1.4,0.5,2.5,1.3,3.5,2.2c1,1,1.7,2.1,2.2,3.5s0.8,2.9,0.8,4.6s-0.3,3.2-0.8,4.5
	c-0.5,1.4-1.3,2.5-2.2,3.5c-1,1-2.1,1.7-3.5,2.2s-2.9,0.8-4.6,0.8c-1.7,0-3.2-0.3-4.5-0.8s-2.5-1.3-3.5-2.2c-1-1-1.7-2.1-2.2-3.5
	s-0.8-2.9-0.8-4.5C233.9,17.5,234.2,16,234.7,14.6z M240,21.7c0.2,0.8,0.4,1.5,0.8,2.2c0.4,0.6,0.9,1.1,1.6,1.5
	c0.7,0.4,1.5,0.6,2.5,0.6s1.8-0.2,2.5-0.6s1.2-0.9,1.6-1.5c0.4-0.6,0.7-1.4,0.8-2.2c0.2-0.8,0.2-1.6,0.2-2.5c0-0.8-0.1-1.7-0.2-2.5
	c-0.2-0.8-0.4-1.5-0.8-2.2c-0.4-0.6-0.9-1.1-1.6-1.5c-0.7-0.4-1.5-0.6-2.5-0.6s-1.8,0.2-2.5,0.6c-0.7,0.4-1.2,0.9-1.6,1.5
	c-0.4,0.6-0.7,1.3-0.8,2.2c-0.2,0.8-0.2,1.6-0.2,2.5C239.8,20,239.9,20.9,240,21.7z"/>
</svg>
