<?xml version="1.0" encoding="utf-8"?>
<!-- Generator: Adobe Illustrator 24.3.0, SVG Export Plug-In . SVG Version: 6.00 Build 0)  -->
<svg version="1.1" id="Font" xmlns="http://www.w3.org/2000/svg" xmlns:xlink="http://www.w3.org/1999/xlink" x="0px" y="0px"
	 viewBox="0 0 64 64" style="enable-background:new 0 0 64 64;" xml:space="preserve">
<path fill="#428bca" d="M3,11h58c1.7,0,3,1.3,3,3l0,0c0,1.7-1.3,3-3,3H3c-1.7,0-3-1.3-3-3l0,0C0,12.3,1.3,11,3,11z M3,29h58c1.7,0,3,1.3,3,3l0,0
	c0,1.7-1.3,3-3,3H3c-1.7,0-3-1.3-3-3l0,0C0,30.3,1.3,29,3,29z M3,47h58c1.7,0,3,1.3,3,3l0,0c0,1.7-1.3,3-3,3H3c-1.7,0-3-1.3-3-3l0,0
	C0,48.3,1.3,47,3,47z"/>
</svg>
