<?xml version="1.0" encoding="utf-8"?>
<!-- Generator: Adobe Illustrator 24.3.0, SVG Export Plug-In . SVG Version: 6.00 Build 0)  -->
<svg version="1.1" id="Font" xmlns="http://www.w3.org/2000/svg" xmlns:xlink="http://www.w3.org/1999/xlink" x="0px" y="0px"
	 viewBox="0 0 256 248" style="enable-background:new 0 0 256 248;" xml:space="preserve">
<style type="text/css">
	.st0{fill:#01589F;}
	.st1{fill:#E8C525;}
</style>
<path class="st0" d="M84.7,78.7c0.3,0,0.7,0,1,0c28.1,0,56.2,0,84.4,0c0.3,0,0.6,0,1-0.1c2.1,0,4.3,0.1,6.4,0c0.9,0,1.2,0.2,1.2,1.2
	c0,11.4,0,22.7,0,34.1c0,7.7,0.2,15.4-0.1,23.1c-0.6,13.5-5.7,25.3-14.9,35.3c-6.9,7.4-15.3,12.1-25.1,14.7
	c-4.2,1.1-7.8,3.2-10.3,6.9c-0.2,0.3-0.3,0.6-0.7,0.1c-2.2-3.6-5.7-5.3-9.5-6.6c-3.3-1.2-6.7-2.1-9.9-3.6
	c-13.6-6.5-22.8-16.9-27.9-31c-2.1-5.7-3.1-11.7-3.1-17.7c0-18.3,0-36.7,0-55c0-1,0.2-1.4,1.3-1.3C80.5,78.8,82.6,78.7,84.7,78.7z
	 M111.4,147.7L111.4,147.7C111.3,147.7,111.4,147.7,111.4,147.7c0,0.2-0.1,0.4,0,0.6c0.8,3.4,1.1,6.9,1.1,10.4
	c0,0.7,0.4,0.6,0.9,0.6c2.4,0,4.9,0,7.3,0c7.3,0,14.5,0,21.8,0c0.8,0,1.2-0.1,1.2-1.1c0-1.5,0.1-3.1,0.2-4.7c0.2-2,0.6-3.9,1-5.9
	c-3.5,1.7-5.2,1.4-7.6-1.1c-0.8,0.8-1.7,1.6-2.8,1.9c-2.1,0.7-3.9-0.3-5.6-1.4c-0.6-0.4-1-0.4-1.6,0c-2.8,1.9-5.2,2.5-8-0.2
	c-0.2-0.2-0.4-0.3-0.7,0C116.1,149.2,114,149.4,111.4,147.7z M134,114.6c0,0.2,0,0.4,0,0.5c0.7,3.4,1,6.8,1,10.2
	c0,0.7,0.4,0.6,0.8,0.6c9.1,0,18.1,0,27.2,0c0.7,0,0.8-0.2,0.9-0.8c0-1.9,0.1-3.7,0.3-5.6c0.2-1.6,0.6-3.3,0.8-4.9
	c-0.3-0.1-0.5,0.1-0.6,0.2c-1.9,1.2-4.4,0.9-5.8-0.9c-0.5-0.7-0.7-0.5-1.2,0c-1.8,1.8-3.5,2-5.7,0.9c-0.5-0.2-1-0.5-1.4-0.9
	c-0.6-0.5-0.9-0.5-1.6,0c-3.1,2.2-4.8,2.1-7.7-0.5c0,0-0.1,0-0.1,0C138.7,115.9,137.1,116.2,134,114.6z M122.1,114.5
	c-0.2,0.1-0.3,0.1-0.4,0.1c-2.3,1.5-4.5,1.2-6.3-0.9c-0.5-0.6-0.6-0.1-0.9,0.1c-1.4,1.4-3,2.1-5,1.3c-0.8-0.3-1.6-0.7-2.3-1.3
	c-0.5-0.5-0.9-0.4-1.5,0c-3,2.2-4.7,2.1-7.4-0.2c-0.3-0.3-0.5-0.3-0.7,0.1c-0.8,1.1-1.9,1.6-3.1,1.7c-1.3,0.2-2.4-0.3-3.6-1.2
	c0.8,3.7,1.2,7.2,1.1,10.8c0,0.6,0.2,0.8,0.8,0.8c1.2,0,2.3,0,3.5,0c7.9,0,15.8,0,23.6,0c0.9,0,1.1-0.2,1.1-1.1
	c-0.1-1,0.1-1.9,0.1-2.9C121.2,119.5,121.6,117.1,122.1,114.5z M124.1,138.1c-1.7,0.2-2.7,0.7-3.4,1.6c-1.2,1.6-1.2,3.7,0.1,5.2
	c1.4,1.6,3.7,1.9,5.5,0.6c1.1-0.9,1.8-1,3,0c1.4,1.2,3.2,1.2,4.8,0.2c1.5-0.9,2.1-2.3,1.9-4c-0.2-1.9-1.6-3.1-4.2-3.6
	c0.8-3,0.5-4.5-1.4-5.7c-1.7-1.1-3.9-0.9-5.4,0.3C123.4,134.1,123.1,135.8,124.1,138.1z M153.5,103.2c-0.1-2-0.9-3.2-2.5-4
	c-1.5-0.7-3.3-0.4-4.4,0.8c-1.3,1.3-1.7,2.8-1,4.5c0.2,0.5,0.3,0.7-0.4,0.8c-1.9,0.3-3,1.5-3.3,3.3c-0.3,1.5,0.5,3.3,1.9,4.1
	c1.4,0.8,3.1,0.8,4.5-0.5c0.9-0.8,1.3-0.6,2.1,0.1c1.8,1.6,4.4,1.2,5.7-0.7c1.3-1.9,0.8-4.5-1.1-5.7c-0.6-0.4-1.7-0.3-2-0.7
	C152.8,104.6,153.6,103.7,153.5,103.2z M98.9,109.1c0,1.7,0.7,2.9,2.2,3.7c1.6,0.8,3.1,0.3,4.3-0.8c0.7-0.6,1-0.8,1.8,0
	c1.3,1.3,3.1,1.5,4.6,0.7c1.5-0.8,2.3-2.5,2-4.2c-0.3-1.7-1.5-2.9-3.3-3.2c-0.8-0.1-0.5-0.4-0.3-0.8c0.7-1.7,0.1-3.6-1.3-4.7
	c-1.4-1.1-3.4-1.1-4.9,0c-1.5,1.1-2.1,3-1.4,4.7c0.3,0.6,0.2,0.8-0.5,0.9C100.2,105.6,99,107.1,98.9,109.1z M142.4,138.3
	c-0.6,0.2-1.3,0.3-1.9,0.6c-1.5,0.7-2.2,1.8-2.2,3.4c0,1.5,0.5,2.9,2,3.6c1.5,0.7,3,0.8,4.4-0.2c0.4-0.3,0.6-0.7,0.8-1.3
	c0.9-4,1.8-8,2.7-11.9c0.1-0.6,0.1-0.9-0.6-0.8c-0.6,0-1.3,0-1.9,0.1c-2.3,0.4-3.6,1.8-3.8,4C141.8,136.6,142.2,137.5,142.4,138.3z
	 M113.5,138.3c0.1-0.3,0.2-0.7,0.3-1c0.7-2.6-0.6-4.9-3.3-5.5c-0.7-0.2-1.5-0.1-2.3-0.1c-0.6,0-0.7,0.2-0.6,0.8c0.9,4,1.8,8,2.7,12
	c0.1,0.5,0.4,0.9,0.8,1.2c1.4,1,3,0.8,4.4,0.2c1.5-0.7,1.9-2,1.9-3.5c0-1.6-0.7-2.8-2.2-3.5C114.8,138.7,114.2,138.5,113.5,138.3z
	 M167.1,98.7c-3.2,0-5.1,2.1-4.5,4.9c0.3,1.3,0.1,1.8-1.2,2.2c-2.1,0.7-2.9,3.4-1.8,5.5c0.9,1.7,3.5,2.5,5.2,1.4
	c0.6-0.3,1-0.8,1.1-1.5c0.7-3.7,1.6-7.4,2.4-11.1C168.5,98.7,168.5,98.7,167.1,98.7z M119.9,113.2c1.4,0,2.6-0.7,2.9-1.8
	c0.9-4,1.7-8,2.6-12c0.1-0.4,0.1-0.7-0.5-0.7c-4.4-0.4-6.2,2.6-5.2,5.7c0.3,0.8,0,0.9-0.7,1.1c-2.1,0.5-3.1,2.2-2.9,4.4
	C116.4,111.9,117.8,113.2,119.9,113.2z M131.8,98.7c-1.5,0-1.4,0-1.1,1.4c0.8,3.6,1.6,7.3,2.3,10.9c0.2,1.2,1,1.8,2.1,2.1
	c2.3,0.6,4.5-1,4.7-3.4c0.2-2.2-0.8-3.7-3-4.2c-0.7-0.2-0.7-0.4-0.5-1C137.2,101.2,135.3,98.8,131.8,98.7z M88.8,98.7
	c-1.4,0-1.4,0-1.1,1.4c0.8,3.6,1.5,7.2,2.3,10.8c0.3,1.5,1.3,2.3,2.8,2.3c2.2,0,3.7-1.2,4-3.2c0.3-2.2-0.7-3.9-2.9-4.5
	c-0.5-0.1-0.9-0.1-0.6-0.9C94.2,101.2,92.4,98.8,88.8,98.7z"/>
<path d="M29.1,224.3c2.3,1.9,4.7,3,7.4,3.6c2.2,0.5,4.5,0.5,6.6-0.5c3.4-1.7,3.9-5.3,1-7.8c-1.4-1.2-3.1-1.9-4.7-2.7
	c-1.9-0.9-3.8-1.7-5.6-2.9c-2.8-1.9-4.2-4.5-3.7-7.9c0.4-3.1,2.5-4.9,5.2-6c1.1-0.5,2.3-0.8,3.6-0.9c3-0.4,6-0.3,9,0.5
	c0.6,0.2,0.8,0.4,0.8,1c-0.1,1.4,0,2.9,0,4.5c-0.4-0.4-0.7-0.7-1.1-0.9c-2.8-1.9-5.8-2.4-9-1.4c-3.5,1.1-4.1,4.6-1.3,7
	c1.6,1.3,3.4,2.1,5.3,3c1.6,0.8,3.3,1.5,4.8,2.5c5.4,3.5,5.5,10.2,0.2,13.9c-2,1.4-4.2,2-6.6,2.2c-3.2,0.3-6.4-0.1-9.6-1.1
	c-0.5-0.1-0.8-0.3-0.9-0.9C30,228,29.6,226.3,29.1,224.3z M0,248c84.7,0,169.5,0,254.2,0c0.3,0,0.7,0,1,0c0.4,0,0.5-0.2,0.5-0.6
	c0.1-1.1-0.8-0.7-1.3-0.7c-84.5,0-168.9,0-253.4,0c-0.4,0-0.7,0-1.1,0C0,247.1,0,247.6,0,248z M89.2,232.4c-1.2-0.8-2.3-1.6-3.3-2.4
	c-1.2-0.9-1.8-2-2.3-3.4c-1.8-5.5-3.6-11-5.3-16.5c-0.1-0.4-0.2-0.8-0.6-1.2c-2.4,7.7-4.8,15.5-7.3,23.3c-2.6-1.7-5-3.2-6-6.4
	c-2-6.5-4.2-13-6.2-19.5c-1.1-3.5-1.3-4-3.6-6.6c2.3,0,4.4,0,6.5,0c0.2,0,0.4,0.1,0.4,0.3c0.3,3.2,1.6,6,2.6,9c1.5,5,3.2,10,4.8,15
	c0.1,0.2,0,0.4,0.4,0.6c0.7-2.2,1.4-4.4,2.1-6.7c1.2-4,2.5-8,3.7-12c0.2-0.7,0.4-1.5,0.5-2.2c0.3-1.8-0.1-2.7-1.8-4
	c1.7,0,3.3,0,4.8,0c0.6,0,1.4-0.2,1.8,0.1c0.5,0.3,0.1,1.1,0.2,1.7c0.4,2.4,1.3,4.6,2,6.8c1.6,5,3.2,10,4.9,15.1
	c0.1,0.4,0.1,0.8,0.6,1.2c0.4-1.3,0.8-2.6,1.2-3.9c1.5-4.8,3-9.5,4.5-14.3c0.2-0.6,0.3-1.2,0.5-1.8c0.5-2.6,0.2-3.4-2.2-5
	c2.5,0,4.7,0,7,0c0.8,0,0.3,0.6,0.2,0.8c-1,3.5-2.1,6.9-3.2,10.4c-2.1,6.8-4.2,13.7-6.3,20.5C89.5,231.8,89.4,232.1,89.2,232.4z
	 M130.9,230.8c2.2-1.5,2.1-3.9,2.1-6.1c0-6.9,0-13.7,0-20.6c0-1.6-0.2-3.2-2-4c0.2-0.3,0.5-0.2,0.8-0.2c3.8,0,7.6,0,11.4,0
	c3.2,0,6.3,0.6,9.1,2.1c5.3,2.7,8.2,8,7.7,14.3c-0.6,7.8-5.9,13.3-13.8,14.5c-5,0.7-10.1,0.3-15.1,0.4
	C131.1,231,131,230.9,130.9,230.8z M137.8,215.5c0,3.5,0,7.1,0,10.6c0,0.9,0.3,1.2,1.2,1.2c2,0.1,4,0.2,6-0.2c4.2-0.9,7.5-3,9-7.3
	c0.8-2.1,0.8-4.3,0.5-6.5c-0.5-4.9-3.4-8.3-8-9.5c-2.6-0.7-5.2-0.7-7.8-0.2c-0.7,0.1-0.9,0.4-0.9,1.1
	C137.8,208.3,137.8,211.9,137.8,215.5z M201.2,206.9c-0.2,0.3-0.1,0.6-0.1,0.9c0,5.7,0,11.4,0,17.1c0,2.3,0.1,4.5,2.4,6
	c-2.7,0-5.5,0-8.3,0c0.1-0.1,0.1-0.3,0.2-0.3c1.8-1.1,2.3-2.7,2.3-4.6c0-7.1,0-14.2,0-21.3c0-2-0.5-3.7-2.3-4.9c2.1,0,4.2,0,6.4,0
	c0.3,0,0.4,0.1,0.6,0.4c4,5.6,8.4,10.9,12.5,16.4c1.6,2.1,3.2,4.1,4.8,6.2c0.2,0.2,0.3,0.6,0.8,0.7c0-0.4,0-0.7,0-1.1
	c0-5.6,0-11.1,0-16.7c0-3.2-0.1-3.5-2.4-5.7c2.8,0,5.5,0,8.2,0c0,0,0,0.2,0,0.2c-2,1.3-2.3,3.2-2.3,5.4c0,8.6,0,17.2,0,25.8
	c0,1.3,0,1.3-1.2,0.8c-2.1-0.9-3.7-2.3-5.1-4.1c-5.2-6.8-10.5-13.6-15.7-20.4C201.7,207.3,201.6,207,201.2,206.9z M167.8,199.8
	c6,0,12,0,18,0c0,1.7,0,3.5,0,5.4c-3.1-2.9-6.8-2-10.4-1.9c-0.5,0-0.7,0.2-0.7,0.8c0,2.6,0,5.1,0,7.7c0,0.5,0.2,0.6,0.6,0.6
	c2.4-0.1,4.8,0.2,7.2-0.2c0.6-0.1,0.6,0.1,0.6,0.6c0,1.3,0,2.6,0,4.1c-2.4-1.9-5.1-1.1-7.7-1.3c-0.5,0-0.7,0.1-0.7,0.7
	c0,3.5,0,7.1,0,10.6c0,0.4,0,0.7,0.5,0.7c2.9-0.1,5.9,0.2,8.8-0.3c2-0.3,3.7-1.1,5.2-2.4c-0.7,1.9-1.3,3.9-2,5.8
	c-0.1,0.3-0.4,0.3-0.7,0.3c-6.2,0-12.5,0-18.7,0c0,0,0-0.1-0.1-0.2c1.9-1.1,2-3,2-5c0-7.1,0-14.2,0-21.4
	C169.7,202.7,169.5,201,167.8,199.8z M126.6,224.9c-0.7,1.9-1.3,3.8-2,5.7c-0.1,0.4-0.4,0.4-0.8,0.4c-6.2,0-12.5,0-19,0
	c2.6-1.6,2.2-4,2.2-6.2c0-6.8,0-13.5,0-20.3c0-1.8-0.2-3.5-2-4.7c6,0,11.9,0,17.9,0c0,1.6,0,3.4,0,5.4c-2.5-2.6-5.6-2.2-8.6-2
	c-2.4,0.1-2.4,0.2-2.4,2.6c0,1.9,0,3.8,0,5.6c0,0.7,0.1,1,0.9,1c2.3-0.1,4.6,0.2,7-0.2c0.4-0.1,0.5,0.1,0.5,0.4c0,1.4,0,2.7,0,4.2
	c-2.5-2-5.3-1.1-7.9-1.3c-0.5,0-0.5,0.3-0.5,0.6c0,3.6,0,7.2,0,10.7c0,0.5,0.2,0.6,0.6,0.6c2.8,0,5.6,0.1,8.4-0.2
	c1.9-0.2,3.6-0.9,5-2.2C126.1,225,126.2,224.8,126.6,224.9z M209,184.6c-15.2,0-30.3,0-45.5,0c-0.3,0-0.6,0-0.9,0
	c-0.4,0-0.4-0.3-0.4-0.6c0-0.3,0-0.6,0.4-0.6c0.3,0,0.5,0,0.8,0c30.5,0,60.9,0,91.4,0c0.3,0,0.6,0,0.9,0c0.5,0,0.3,0.4,0.3,0.7
	c0,0.3,0,0.5-0.4,0.5c-0.3,0-0.7,0-1,0C239.5,184.6,224.2,184.6,209,184.6z M46.8,183.4c15.1,0,30.1,0,45.2,0c0.3,0,0.6,0,0.9,0
	c0.5,0,0.5,0.3,0.5,0.6c0,0.4-0.1,0.6-0.6,0.6c-0.3,0-0.5,0-0.8,0c-30.2,0-60.4,0-90.6,0c-0.3,0-0.5,0-0.8,0c-0.5,0-0.5-0.3-0.5-0.6
	c0-0.4,0.1-0.6,0.6-0.6c0.3,0,0.6,0,0.9,0C16.7,183.4,31.8,183.4,46.8,183.4z"/>
<path class="st1" d="M128.8,0c0,1.2,0,2.5,0,3.7c0,0.6,0.2,0.8,0.8,0.8c0.9,0,1.9,0,2.8,0c0.6,0,0.7,0.2,0.7,0.8
	c0,0.5-0.2,0.7-0.7,0.7c-0.9,0-1.9,0-2.8,0c-0.6,0-0.8,0.2-0.8,0.8c0,0.9,0.1,1.9,0,2.8c-0.1,0.8,0.2,1.2,1,1.4
	c4.5,1.2,6.4,6.3,3.7,10c-0.4,0.6-0.9,1-1.5,1.7c1.8,0.1,3.5,0.2,5.2,0.2c7.9,0.3,15.8,1,23.4,3.5c4.5,1.5,8.5,3.8,11.5,7.5
	c2.9,3.6,4.1,7.7,4.1,12.3c0,0.9-0.1,1.7,1.3,1.5c0.8-0.1,0.4,0.5,0.3,0.8c-1,3.2-2,6.4-3,9.6c-1,3-2.1,5.9-2.9,9
	c-0.9,3.8-0.9,7.8-0.9,11.8c-0.3,0-0.6,0.1-1,0.1c-28.1,0-56.2,0-84.4,0c-0.3,0-0.7,0-1,0c0-3.9-0.1-7.9-0.9-11.8
	c-0.2-0.9-0.6-1.9-0.9-2.8c-1.6-5.2-3.3-10.4-4.9-15.6c-0.3-0.8-0.2-1.2,0.8-1.1c0.7,0.1,1-0.1,0.9-0.9
	c-0.3-11.3,6.7-17.2,14.9-20.2c4.9-1.8,10-2.6,15.1-3.1c4.4-0.5,8.9-0.7,13.4-0.8c0.2,0,0.5-0.1,0.7-0.1c0-0.4-0.3-0.6-0.5-0.8
	c-3.6-3.7-2-9.6,3-10.9c0.7-0.2,1-0.4,0.9-1.2c-0.1-1-0.1-2,0-2.9c0-0.7-0.2-0.9-0.9-0.9c-0.9,0-1.8,0-2.7,0c-0.5,0-0.7-0.2-0.7-0.7
	c0-0.5,0.1-0.8,0.7-0.8c0.9,0,1.9,0,2.8,0c0.6,0,0.8-0.2,0.8-0.8c0-1.2,0-2.5,0-3.7C127.7,0,128.3,0,128.8,0z M84.1,62.7
	c0,0-0.1-0.1-0.1-0.1c-0.1,0.1-0.1,0.2,0,0.2c0.2,0.7,0.6,1.3,1,1.9c1.5,2.1,4.8,2.5,6.8,0.8c0.5-0.4,0.6-1.4,1.2-1.5
	c0.7-0.1,0.7,1,1.3,1.4c3.4,2.6,8.3,1,9.3-3.1c0.1-0.1,0.1-0.2,0-0.3c0,0-0.1,0.1-0.1,0.1c-1.9,1.5-4,1.7-6.1,0.4
	c-1.5-0.8-2.4-2.1-2.4-3.9c0-1.7,1-2.8,2.4-3.6c0.6-0.3,1.2-0.6,1.8-0.7c0.4-0.1,0.6-0.2,0.3-0.7c-1.1-1.9,0.1-4.5,2.4-5.6
	c0.3-0.1,0.7-0.2,0.9-0.5c-0.8-0.3-1.5-0.5-2.1-0.7c-2.3-0.8-2.3-0.8-1.9-3.2c1.1-6.3,4.6-10.9,9.6-14.5c0.3-0.2,0.7-0.3,0.9-0.8
	c-0.2,0-0.4,0-0.5,0c-4.6,1-9.1,2.5-13.2,4.9c-4.6,2.8-7.1,6.8-7.1,12.2c0,0.6-0.2,0.8-0.8,0.9c-1.4,0.3-2.8,0.6-4.5,1
	c3.6,1.5,4,2.4,3.3,6.2c-0.1,0.5,0.2,0.4,0.5,0.5c0.6,0.2,1.3,0.3,1.9,0.6c2,0.9,3,2.5,2.8,4.4c-0.2,2-1.6,3.5-3.8,4
	C86.6,63.5,85.4,63,84.1,62.7z M152.3,62.3c0,0-0.1-0.1-0.1-0.1c0,0,0,0.1,0,0.1C152.2,62.2,152.2,62.3,152.3,62.3
	c0.2,2.5,2.1,4.3,4.5,4.3c0.8,0,1.6-0.1,2.4-0.3c1.3-0.3,2.5-0.7,3.1-2.1c0.2-0.4,0.5-0.4,0.7,0c0.8,1.8,2.4,2.1,4.1,2.2
	c2.1,0.2,4.4-1.6,4.6-3.8c-0.7,0.2-1.5,0.4-2.2,0.5c-2.1,0.4-4.4-1-5.1-3c-0.7-2.1,0-4.1,2.1-5.2c0.6-0.4,1.3-0.6,2-0.7
	c0.7-0.1,0.8-0.2,0.6-1c-0.9-2.3,0.1-4.4,2.4-5.4c0.3-0.1,0.7-0.1,1-0.5c-1.4-0.3-2.8-0.7-4.2-0.9c-0.7-0.1-0.9-0.4-0.9-1.1
	c0-5.1-2.3-9-6.6-11.7c-3.9-2.5-8.3-4-12.8-5c-0.5-0.1-0.9-0.4-1.5-0.1c0.4,0.3,0.6,0.5,0.9,0.7c2.3,1.5,4.2,3.4,5.9,5.6
	c2.3,3.2,3.9,6.7,4,10.8c0,0.6-0.2,0.9-0.8,1.1c-1.2,0.3-2.3,0.7-3.7,1.1c0.6,0.3,1,0.5,1.4,0.7c1.6,0.9,2.8,2.8,2.2,4.2
	c-0.7,1.7,0.2,1.8,1.3,2.3c1.7,0.7,2.9,2,2.9,3.9c0,1.7-1.3,3.4-3.2,4.2C155.7,63.8,153.9,63.5,152.3,62.3z M129.2,62.5
	c0,0,0-0.1-0.1-0.1C129.1,62.4,129.1,62.4,129.2,62.5C129.1,62.5,129.2,62.5,129.2,62.5c0.5,1.5,1.4,2.6,2.8,3.4
	c2,1.1,5.2,0.8,6.5-0.6c0.4-0.4,0.6-1.2,0.9-1.2c0.7-0.1,0.7,0.8,1.1,1.2c3.1,2.8,8.4,1.4,9.6-2.7c0.1-0.1,0.2-0.2,0.1-0.3
	c-0.1,0.1-0.1,0.1-0.2,0.2c-0.2,0.1-0.4,0.2-0.7,0.4c-2.2,1.3-5.3,0.6-6.8-1.5c-1.3-1.8-1-3.9,0.5-5.4c0.8-0.7,1.7-1.1,2.7-1.4
	c0.6-0.1,0.7-0.3,0.4-0.9c-0.7-1.8-0.2-3.5,1.3-4.7c0.7-0.6,1.6-0.9,2.5-1.2c-1-0.3-1.9-0.7-2.8-0.9c-0.7-0.2-0.9-0.6-0.9-1.3
	c0-3.1-0.6-6.1-2.2-8.8c-2.6-4.2-6.6-6.6-11-8.4c0,0-0.1,0.1-0.2,0.1c0,0.2,0,0.3,0,0.5c0.8,5.5,1.2,11,1.1,16.5
	c0,0.7-0.2,1-0.9,1.2c-1.1,0.3-2.2,0.7-3.4,1.1c0.8,0.5,1.4,0.7,1.9,1.1c1.5,1.1,2.2,3,1.5,4.5c-0.4,0.9-0.1,1.1,0.7,1.3
	c2.2,0.6,3.6,2.3,3.7,4.1c0.1,3.3-3.9,5.7-7,4.4C130,62.8,129.7,62.4,129.2,62.5z M126.4,47.6c-1.3-0.4-2.5-0.8-3.6-1.1
	c-0.5-0.1-0.7-0.4-0.7-0.9c-0.1-3.4,0-6.9,0.3-10.3c0.2-2.1,0.4-4.2,0.7-6.2c0.1-0.4,0.3-1.1-0.6-0.7c-3.5,1.6-6.8,3.4-9.3,6.4
	c-2.5,3-3.4,6.6-3.5,10.5c0,0.8-0.3,1.2-1,1.4c-0.9,0.3-1.8,0.6-2.9,1c0.6,0.2,0.9,0.3,1.3,0.5c2.1,1,3.4,3.2,2.6,5
	c-0.4,1-0.1,1.2,0.8,1.5c2.2,0.6,3.5,2.2,3.5,4c0,1.8-0.8,3.1-2.3,3.9c-1.7,0.9-3.4,1.2-5.2,0.2c-0.3-0.2-0.7-0.4-1.2-0.8
	c0.8,2.3,1.9,4,4.2,4.3c2.4,0.3,4.8,0.3,6.3-2.2c0.2-0.4,0.5-0.3,0.7,0c1,2.1,2.9,2.2,4.8,2.3c2.5,0.1,5-1.9,5.3-4.3
	c-0.2,0.1-0.3,0.2-0.5,0.3c-2.4,1.8-5.7,0.5-7-1.3c-1.2-1.7-1.1-3.7,0.3-5.2c0.8-0.8,1.8-1.4,2.9-1.6c0.6-0.1,0.7-0.3,0.5-0.9
	c-0.7-1.9-0.1-3.6,1.4-4.8C124.8,48.3,125.5,48,126.4,47.6z M146.3,28.4L146.3,28.4L146.3,28.4L146.3,28.4z M109.7,28.3L109.7,28.3
	L109.7,28.3L109.7,28.3z M150.1,62.5c0.1-0.1,0.2-0.2,0.1-0.3c-0.1,0.1-0.1,0.1-0.2,0.2C150.1,62.4,150.1,62.5,150.1,62.5z
	 M129.2,62.5c0,0,0-0.1-0.1-0.1C129.1,62.4,129.1,62.4,129.2,62.5C129.1,62.5,129.2,62.5,129.2,62.5
	C129.2,62.5,129.2,62.5,129.2,62.5z M152.3,62.3c0,0-0.1-0.1-0.1-0.1c0,0,0,0.1,0,0.1C152.2,62.2,152.2,62.3,152.3,62.3L152.3,62.3z
	 M103.6,62.4c0.1-0.1,0.1-0.2,0-0.3c0,0-0.1,0.1-0.1,0.1C103.5,62.3,103.5,62.3,103.6,62.4z M111.4,147.7c0,0.2-0.1,0.4,0,0.6
	c0.8,3.4,1.1,6.9,1.1,10.4c0,0.7,0.4,0.6,0.9,0.6c2.4,0,4.9,0,7.3,0c7.3,0,14.5,0,21.8,0c0.8,0,1.2-0.1,1.2-1.1
	c0-1.5,0.1-3.1,0.2-4.7c0.2-2,0.6-3.9,1-5.9c-3.5,1.7-5.2,1.4-7.6-1.1c-0.8,0.8-1.7,1.6-2.8,1.9c-2.1,0.7-3.9-0.3-5.6-1.4
	c-0.6-0.4-1-0.4-1.6,0c-2.8,1.9-5.2,2.5-8-0.2c-0.2-0.2-0.4-0.3-0.7,0C116.1,149.2,114,149.4,111.4,147.7
	C111.4,147.7,111.4,147.7,111.4,147.7z M134,115.1c0.7,3.4,1,6.8,1,10.2c0,0.7,0.4,0.6,0.8,0.6c9.1,0,18.1,0,27.2,0
	c0.7,0,0.8-0.2,0.9-0.8c0-1.9,0.1-3.7,0.3-5.6c0.2-1.6,0.6-3.3,0.8-4.9c-0.3-0.1-0.5,0.1-0.6,0.2c-1.9,1.2-4.4,0.9-5.8-0.9
	c-0.5-0.7-0.7-0.5-1.2,0c-1.8,1.8-3.5,2-5.7,0.9c-0.5-0.2-1-0.5-1.4-0.9c-0.6-0.5-0.9-0.5-1.6,0c-3.1,2.2-4.8,2.1-7.7-0.5
	c0,0-0.1,0-0.1,0c-2.1,2.4-3.8,2.7-6.9,1.1C134,114.8,133.9,115,134,115.1z M121.7,114.7c-2.3,1.5-4.5,1.2-6.3-0.9
	c-0.5-0.6-0.6-0.1-0.9,0.1c-1.4,1.4-3,2.1-5,1.3c-0.8-0.3-1.6-0.7-2.3-1.3c-0.5-0.5-0.9-0.4-1.5,0c-3,2.2-4.7,2.1-7.4-0.2
	c-0.3-0.3-0.5-0.3-0.7,0.1c-0.8,1.1-1.9,1.6-3.1,1.7c-1.3,0.2-2.4-0.3-3.6-1.2c0.8,3.7,1.2,7.2,1.1,10.8c0,0.6,0.2,0.8,0.8,0.8
	c1.2,0,2.3,0,3.5,0c7.9,0,15.8,0,23.6,0c0.9,0,1.1-0.2,1.1-1.1c-0.1-1,0.1-1.9,0.1-2.9c0.1-2.5,0.5-4.9,1-7.5
	C121.9,114.6,121.8,114.6,121.7,114.7z M120.7,139.7c-1.2,1.6-1.2,3.7,0.1,5.2c1.4,1.6,3.7,1.9,5.5,0.6c1.1-0.9,1.8-1,3,0
	c1.4,1.2,3.2,1.2,4.8,0.2c1.5-0.9,2.1-2.3,1.9-4c-0.2-1.9-1.6-3.1-4.2-3.6c0.8-3,0.5-4.5-1.4-5.7c-1.7-1.1-3.9-0.9-5.4,0.3
	c-1.6,1.3-1.9,3-0.9,5.4C122.4,138.4,121.4,138.8,120.7,139.7z M151.1,99.2c-1.5-0.7-3.3-0.4-4.4,0.8c-1.3,1.3-1.7,2.8-1,4.5
	c0.2,0.5,0.3,0.7-0.4,0.8c-1.9,0.3-3,1.5-3.3,3.3c-0.3,1.5,0.5,3.3,1.9,4.1c1.4,0.8,3.1,0.8,4.5-0.5c0.9-0.8,1.3-0.6,2.1,0.1
	c1.8,1.6,4.4,1.2,5.7-0.7c1.3-1.9,0.8-4.5-1.1-5.7c-0.6-0.4-1.7-0.3-2-0.7c-0.4-0.5,0.5-1.3,0.4-1.9
	C153.4,101.2,152.6,99.9,151.1,99.2z M101.2,112.7c1.6,0.8,3.1,0.3,4.3-0.8c0.7-0.6,1-0.8,1.8,0c1.3,1.3,3.1,1.5,4.6,0.7
	c1.5-0.8,2.3-2.5,2-4.2c-0.3-1.7-1.5-2.9-3.3-3.2c-0.8-0.1-0.5-0.4-0.3-0.8c0.7-1.7,0.1-3.6-1.3-4.7c-1.4-1.1-3.4-1.1-4.9,0
	c-1.5,1.1-2.1,3-1.4,4.7c0.3,0.6,0.2,0.8-0.5,0.9c-1.9,0.3-3.2,1.9-3.2,3.8C98.9,110.8,99.7,112,101.2,112.7z M140.6,138.9
	c-1.5,0.7-2.2,1.8-2.2,3.4c0,1.5,0.5,2.9,2,3.6c1.5,0.7,3,0.8,4.4-0.2c0.4-0.3,0.6-0.7,0.8-1.3c0.9-4,1.8-8,2.7-11.9
	c0.1-0.6,0.1-0.9-0.6-0.8c-0.6,0-1.3,0-1.9,0.1c-2.3,0.4-3.6,1.8-3.8,4c-0.1,0.9,0.3,1.8,0.5,2.6
	C141.8,138.5,141.1,138.6,140.6,138.9z M113.8,137.3c0.7-2.6-0.6-4.9-3.3-5.5c-0.7-0.2-1.5-0.1-2.3-0.1c-0.6,0-0.7,0.2-0.6,0.8
	c0.9,4,1.8,8,2.7,12c0.1,0.5,0.4,0.9,0.8,1.2c1.4,1,3,0.8,4.4,0.2c1.5-0.7,1.9-2,1.9-3.5c0-1.6-0.7-2.8-2.2-3.5
	c-0.6-0.3-1.2-0.4-1.9-0.6C113.6,138,113.7,137.6,113.8,137.3z M162.5,103.7c0.3,1.3,0.1,1.8-1.2,2.2c-2.1,0.7-2.9,3.4-1.8,5.5
	c0.9,1.7,3.5,2.5,5.2,1.4c0.6-0.3,1-0.8,1.1-1.5c0.7-3.7,1.6-7.4,2.4-11.1c0.3-1.4,0.3-1.4-1.1-1.4
	C163.9,98.8,161.9,100.8,162.5,103.7z M122.8,111.4c0.9-4,1.7-8,2.6-12c0.1-0.4,0.1-0.7-0.5-0.7c-4.4-0.4-6.2,2.6-5.2,5.7
	c0.3,0.8,0,0.9-0.7,1.1c-2.1,0.5-3.1,2.2-2.9,4.4c0.2,2,1.6,3.2,3.8,3.3C121.4,113.3,122.6,112.5,122.8,111.4z M130.7,100.2
	c0.8,3.6,1.6,7.3,2.3,10.9c0.2,1.2,1,1.8,2.1,2.1c2.3,0.6,4.5-1,4.7-3.4c0.2-2.2-0.8-3.7-3-4.2c-0.7-0.2-0.7-0.4-0.5-1
	c1-3.3-0.9-5.7-4.4-5.8C130.4,98.7,130.4,98.7,130.7,100.2z M87.7,100.1c0.8,3.6,1.5,7.2,2.3,10.8c0.3,1.5,1.3,2.3,2.8,2.3
	c2.2,0,3.7-1.2,4-3.2c0.3-2.2-0.7-3.9-2.9-4.5c-0.5-0.1-0.9-0.1-0.6-0.9c1-3.4-0.8-5.8-4.4-5.9C87.4,98.7,87.4,98.7,87.7,100.1z
	 M111.4,147.7L111.4,147.7C111.3,147.7,111.4,147.7,111.4,147.7C111.4,147.7,111.4,147.7,111.4,147.7z"/>
</svg>
