<?xml version="1.0" encoding="utf-8"?>
<!-- Generator: Adobe Illustrator 24.3.0, SVG Export Plug-In . SVG Version: 6.00 Build 0)  -->
<svg version="1.1" id="Layer_1" xmlns="http://www.w3.org/2000/svg" xmlns:xlink="http://www.w3.org/1999/xlink" x="0px" y="0px"
	 viewBox="0 0 512 138" style="enable-background:new 0 0 512 138;" xml:space="preserve">
<style type="text/css">
	.st0{fill:#29568C;}
</style>
<path class="st0" d="M67.7,0c-4.1,0-8,0.4-11.8,1C24.1,6.6,0,35,0,69c0,25.7,13.8,48,34,60c7.1,4.1,15,7,23.5,8.3
	c3.3,0.5,6.6,0.8,10.2,0.8c23.1,0,43.5-11.8,55.7-29.9c7.5-11.2,11.9-24.6,11.9-39.3c0-24.8-12.9-46.7-32.1-58.8
	c-0.1-0.1,0,0-0.1-0.1l-1.7,3c0,0,0.1,0,0.1,0.1c4.3,2.8,8.2,6.1,11.8,9.9c1.8,2,3.6,4.1,5.2,6.4v0.1c0,15.6-23.2,28.2-52,28.2
	c-8.2,0-16.1-1-23-2.9C48.3,28.6,60.8,8.7,76.4,3.8c5.3,0.6,10.3,2,15,4c0,0,1.6-2.6,1.4-2.9c-0.1-0.1-4.1-1.6-6.1-2.3
	C80.7,1,74.4,0,67.7,0z M46.1,7.8c-10.9,8.9-19.5,21.3-24.7,35.8c-2.8-2.6-4.8-5.5-5.8-8.7C22.4,22.6,33.2,13,46.1,7.8z M62.9,27.9
	c-6.1,0-11.2,5-11.2,11.3s5,11.4,11.2,11.4s11.2-5.1,11.2-11.4C74,33,69.1,27.9,62.9,27.9z M127.7,49.1c1.5,5.4,2.3,11,2.3,16.9
	c0,7.2-1.2,14.1-3.4,20.6c-7.3,21.2-25.3,37.4-47.6,41.1c-5.9-4.4-8.7-21.5-8.7-33.7c0-1.9,0.1-3.8,0.2-5.5h-0.1
	c-8.6,0-16.8-0.9-24.6-2.5c-0.9,12.7,3.6,30.1,7.4,40.6c-0.7-0.3-1.6-0.4-2.3-0.6c-5.5-12-8.8-27.1-9.3-43.5
	c8.2,2.3,17.6,3.4,27.4,3C100.9,84.2,126.6,68.1,127.7,49.1z M8.4,54.9c1.1,5,3.8,9.7,7.9,13.7c-0.1,1.9-0.1,3.9-0.1,5.9
	c0,11,1.8,21.6,5.3,31.1c-8.7-10.8-14-24.7-14-39.8C7.4,62.1,7.7,58.5,8.4,54.9z M156.5,23h-9.3v-5.4h24.6V23h-9.1l-0.2,28.5h-6.1
	L156.5,23 M187.9,32.7c1.8,0,5.4-0.9,5.4-5.3c0-3.3-2.3-4.9-5.5-4.9h-3.6v10.2H187.9z M178,17.6h10.4c7.9,0,11.3,4.4,11.3,9.8
	c0,4.3-2.6,7.4-6.5,8.8l9.5,12.7l-5.5,3.4l-9.1-13c-0.6-0.9-1.4-1.1-2.2-1.1h-2v13.5h-6.3L178,17.6 M220.9,24.1L220.9,24.1
	l-4.2,13.2h8.1L220.9,24.1z M211.1,52.1l-5.8-1.8l12.9-32.7h5.5l11.9,32.7l-5.9,1.8l-3.3-9.7H215L211.1,52.1 M241.6,18.6l5.8-1.8
	l15.5,26h0.2l-0.4-25.2h6.1l-0.4,32.7l-6.1,1.8l-15.1-25.7l-0.2,0.1l0.6,25h-6.1L241.6,18.6 M277.9,44.7c1.4,1.1,3.9,2.3,5.8,2.3
	c3.3,0,5.4-2.3,5.4-4.9c0-6.8-13.6-3.9-13.6-15.4c0-5.5,4.5-9.8,11.1-9.8c3.3,0,6.5,1.1,9.3,2.9l-2.6,4.5c-2-1.1-3.8-2.3-6.1-2.3
	c-2.8,0-5.5,1.5-5.5,4.5c0,6.6,13.9,4.5,13.9,15.3c0,5.8-4.5,10.2-10.9,10.2c-3.2,0-6.1-0.9-9-2.6L277.9,44.7 M311.9,33
	c3.3,0,5.9-2,5.9-5.3c0-2-1.2-5.1-5.8-5.1h-3.2L308.6,33H311.9z M302.8,17.6h9.3c8.7,0,12,4,12,10.3c0,6.9-5.8,10.3-12,10.3h-3.3
	v13.3h-6.4L302.8,17.6 M340.4,24.1h-0.1l-4.2,13.2h8.1L340.4,24.1z M330.6,52.1l-5.8-1.8l12.9-32.7h5.5l11.9,32.7l-5.9,1.8l-3.3-9.7
	h-11.6L330.6,52.1 M371.2,32.7c1.8,0,5.4-0.9,5.4-5.3c0-3.3-2.6-4.9-5.5-4.9h-3.6l-0.2,10.2H371.2z M361.3,17.6h10.4
	c7.9,0,11.1,4.4,11.1,9.8c0,4.3-2.3,7.4-6.4,8.8l9.5,12.7l-5.5,3.4l-9.1-13c-0.6-0.9-1.4-1.1-2.2-1.1h-2v13.5h-6.4L361.3,17.6
	 M391.8,17.6h17.6V23h-11.6l-0.2,8.7H409v5.1h-11.4V46h11.7v5.4h-18.1L391.8,17.6 M417,18.6l5.5-1.8l15.6,26l0,0l-0.4-25.2h6.1
	l-0.2,32.7l-6.4,1.8l-15.1-25.7v0.1l0.4,25h-6.1L417,18.6 M479.9,48.8c-2.9,2.3-6.8,3.3-10.4,3.3c-10,0-17.2-7.4-17.2-17.6
	c0-10.4,7.1-17.7,17.1-17.7c3.9,0,7.7,1.4,10.7,3.9l-2.6,4.4c-2-1.8-5.4-2.9-7.9-2.9c-6.5,0-10.7,5.3-10.7,12
	c0,6.4,4.3,12.4,10.4,12.4c4.2,0,6.4-1,8.4-2.3L479.9,48.8 M493.2,37.4l-10.9-17.3l5.5-3.3l8.7,14.4l9-14.4l5.5,3.1L499.7,37
	l-0.2,14.2H493L493.2,37.4 M155.5,60.1h6.1L161.4,94h-6.1L155.5,60.1 M169,61.2l5.7-1.8l15.4,26h0.2l-0.4-25.2h6.1L195.7,93
	l-6.1,1.8l-15.1-25.8l-0.1,0.1l0.5,25h-6.1L169,61.2 M209.9,65.5h-9.3l0.2-5.4h24.6l-0.2,5.4h-9.1L215.8,94h-6.1L209.9,65.5
	 M230.3,60.1h17.6v5.4h-11.4l-0.2,8.7h11.6v5.1h-11.6v9.3h11.7V94h-18.1L230.3,60.1 M264.2,75.3c1.8,0,5.4-0.9,5.4-5.3
	c0-3.3-2.3-4.9-5.5-4.9h-3.7l-0.2,10.2H264.2z M254.3,60.1h10.4c7.9,0,11.1,4.4,11.1,9.8c0,4.3-2.3,7.4-6.4,8.8l9.5,12.7l-5.5,3.3
	l-9.1-13c-0.6-0.9-1.4-1.1-2.2-1.1h-2V94h-6.4L254.3,60.1 M283.4,61.2l5.8-1.8l15.5,25.8h0.2l-0.4-25.2h6.1l-0.4,32.7l-6.1,1.8
	l-15.1-25.7l-0.2,0.1l0.6,25h-6.1L283.4,61.2 M330.4,66.6L330.4,66.6l-4.2,13.2h8.1L330.4,66.6z M320.6,94.6l-5.8-1.8l12.9-32.7h5.5
	l11.9,32.7l-5.9,1.8l-3.3-9.7h-11.6L320.6,94.6 M352.7,65.5h-9.3l0.2-5.4h24.6l-0.2,5.4h-9.1L358.7,94h-6.1L352.7,65.5 M373,60.1
	h6.1L378.8,94h-6.1L373,60.1 M402.5,89.6c6.8,0,11.3-5.8,11.3-12.5c0-7.2-4.5-12.5-11.3-12.5c-5.5,0-11.4,4.6-11.4,12.5
	C391.1,84.4,395.6,89.6,402.5,89.6z M402.5,59.5c10.7,0,17.6,7.8,17.6,17.6c0,9.9-7.7,17.6-17.6,17.6c-10.1,0-17.8-7.4-17.8-17.6
	C384.7,67.1,392.5,59.5,402.5,59.5 M426.2,61.2l5.8-1.8l15.5,26l0,0l-0.4-25.2h6.1L453,93l-6.1,1.8L431.7,69l-0.2,0.1l0.6,25H426
	L426.2,61.2 M473.3,66.6L473.3,66.6l-4.2,13.2h8.1L473.3,66.6z M463.6,94.6l-5.8-1.8l12.7-32.7h5.8l11.9,32.7l-5.9,1.8l-3.3-9.7
	h-11.4L463.6,94.6 M493.2,60.1h6.1L499,88.6h13V94h-19.2L493.2,60.1 M214.7,110.5c1,0,2.9-0.5,2.9-2.9c0-1.8-1.4-2.6-3.1-2.6h-2v5.5
	H214.7z M209.3,102.2h5.8c4.3,0,6.3,2.4,6.3,5.4c0,2.4-1.5,4-3.6,4.9l5.3,6.9l-3.1,1.9l-5-7.2c-0.4-0.5-0.7-0.6-1.2-0.6h-1.2v7.4
	h-3.4L209.3,102.2 M259.2,105.8L259.2,105.8l-2.5,7.3h4.4L259.2,105.8z M253.8,121.2l-3.2-1l7.1-18.1h3.1l6.5,18.1l-3.3,1l-1.8-5.3
	h-6.3L253.8,121.2 M174.4,102.4h9.7v3h-6.3l-0.1,4.8h6.3v2.8h-6.3v5.1h6.4v3h-10L174.4,102.4 M244.2,102h3.4l-0.1,18.6h-3.3V102
	 M196.5,118.2c3.7,0,6.3-3.1,6.3-6.9c0-3.9-2.5-6.9-6.3-6.9c-3.1,0-6.3,2.5-6.3,6.9C190.1,115.4,192.7,118.2,196.5,118.2z
	 M196.5,101.6c5.9,0,9.7,4.3,9.7,9.7c0,5.4-4.3,9.7-9.7,9.7c-5.5,0-9.8-4-9.8-9.7C186.7,105.9,191.1,101.6,196.5,101.6 M164.8,110.9
	l-0.1,3h2.3l-0.1,3.8c0.1,0,0.1,0,0.2,0c-0.1,0-0.4,0.1-0.5,0.1c-0.5,0.1-1,0.3-1.7,0.3h-0.9c-3.3-0.1-5.5-3.1-5.5-6.6
	c0-3.8,2.3-6.6,5.9-6.6c1.5,0,3.3,0.6,4.3,1.6l1.5-2.4c-1.6-1.4-3.7-2.1-5.9-2.1c-5.4,0-9.3,4-9.3,9.8c0,4,2.2,7.3,5.4,8.8
	c0.9,0.4,1.7,0.6,2.7,0.8c0.4,0,0.9,0.1,1.2,0.1c0.5,0,0.9,0,1.4-0.1c1.6-0.3,3.1-0.8,4.3-1.6v-0.3l0.2-8.2h-5.4V110.9z
	 M234.2,110.9l-0.1,3h2.3l-0.1,3.8c0.1,0,0.1,0,0.2,0c-0.1,0-0.4,0.1-0.5,0.1c-0.5,0.1-1,0.3-1.7,0.3h-0.9c-3.3-0.1-5.7-3.1-5.7-6.6
	c0-3.8,2.3-6.6,5.9-6.6c1.5,0,3.3,0.6,4.3,1.6l1.5-2.4c-1.6-1.4-3.7-2.1-5.9-2.1c-5.4,0-9.3,4-9.3,9.8c0,4,2.2,7.3,5.4,8.8
	c0.9,0.4,1.7,0.6,2.7,0.8c0.4,0,0.9,0.1,1.2,0.1c0.5,0,0.9,0,1.4-0.1c1.6-0.3,3.1-0.8,4.3-1.6v-0.3l0.2-8.2h-5.3V110.9z"/>
</svg>
